<svg width="21" height="21" viewBox="0 0 21 21" fill="none" xmlns="http://www.w3.org/2000/svg">
<path fill-rule="evenodd" clip-rule="evenodd" d="M10.5 0C7.64885 0 7.29104 0.0121154 6.17077 0.0630001C5.05292 0.113885 4.28965 0.291577 3.62169 0.550846C2.92119 0.814676 2.28667 1.22813 1.76238 1.76238C1.22803 2.28691 0.814572 2.92171 0.550846 3.6225C0.291577 4.28965 0.114692 5.05292 0.0630001 6.17077C0.0121154 7.29104 0 7.64885 0 10.5C0 13.3512 0.0121154 13.709 0.0630001 14.8292C0.113885 15.9471 0.291577 16.7103 0.550846 17.3775C0.819808 18.0681 1.17842 18.6537 1.76238 19.2376C2.28667 19.7719 2.92119 20.1853 3.62169 20.4492C4.28965 20.7076 5.05292 20.8853 6.17077 20.937C7.29104 20.9879 7.64885 21 10.5 21C13.3512 21 13.709 20.9879 14.8292 20.937C15.9471 20.8861 16.7103 20.7084 17.3775 20.4492C18.0783 20.1855 18.7131 19.772 19.2376 19.2376C19.772 18.7131 20.1854 18.0783 20.4492 17.3775C20.7076 16.7103 20.8853 15.9471 20.937 14.8292C20.9879 13.709 21 13.3512 21 10.5C21 7.64885 20.9879 7.29104 20.937 6.17077C20.8861 5.05292 20.7084 4.28965 20.4483 3.6225C20.1849 2.92179 19.7717 2.28699 19.2376 1.76238C18.7131 1.22801 18.0783 0.814549 17.3775 0.550846C16.7103 0.292385 15.9471 0.114692 14.8292 0.0630001C13.709 0.0121154 13.3512 0 10.5 0ZM10.5 1.89162C13.3035 1.89162 13.6355 1.90292 14.7428 1.953C15.7662 1.99985 16.3227 2.17108 16.6926 2.31485C17.1828 2.50546 17.5326 2.73242 17.9001 3.09992C18.2676 3.46742 18.4945 3.81715 18.6852 4.30742C18.8289 4.67735 19.0002 5.23304 19.047 6.25719C19.0971 7.36373 19.1084 7.6965 19.1084 10.5C19.1084 13.3035 19.0971 13.6355 19.047 14.7428C19.0002 15.767 18.8289 16.3227 18.6852 16.6926C18.517 17.1487 18.2487 17.5613 17.9001 17.9001C17.5613 18.2487 17.1487 18.517 16.6926 18.6852C16.3227 18.8289 15.7662 19.0002 14.7428 19.047C13.6363 19.0971 13.3035 19.1084 10.5 19.1084C7.6965 19.1084 7.36373 19.0971 6.25719 19.047C5.23304 19.0002 4.67735 18.8289 4.30742 18.6852C3.85131 18.517 3.4387 18.2487 3.09992 17.9001C2.75135 17.5612 2.48309 17.1486 2.31485 16.6926C2.17108 16.3227 1.99985 15.767 1.953 14.7428C1.90292 13.6363 1.89162 13.3035 1.89162 10.5C1.89162 7.6965 1.90292 7.36454 1.953 6.25719C1.99985 5.23304 2.17108 4.67735 2.31485 4.30742C2.50546 3.81715 2.73242 3.46742 3.09992 3.09992C3.43872 2.7513 3.85132 2.48304 4.30742 2.31485C4.67735 2.17108 5.23304 1.99985 6.25719 1.953C7.36373 1.90292 7.6965 1.89162 10.5 1.89162Z" fill="#D3BE73"/>
<path fill-rule="evenodd" clip-rule="evenodd" d="M10.5 4.84618C9.00051 4.84618 7.56244 5.44185 6.50213 6.50216C5.44183 7.56246 4.84616 9.00054 4.84616 10.5C4.84616 11.9995 5.44183 13.4376 6.50213 14.4979C7.56244 15.5582 9.00051 16.1539 10.5 16.1539C11.9995 16.1539 13.4376 15.5582 14.4979 14.4979C15.5582 13.4376 16.1539 11.9995 16.1539 10.5C16.1539 9.00054 15.5582 7.56246 14.4979 6.50216C13.4376 5.44185 11.9995 4.84618 10.5 4.84618ZM10.5 14.1346C9.53605 14.1346 8.61157 13.7517 7.92995 13.0701C7.24832 12.3885 6.86539 11.464 6.86539 10.5C6.86539 9.53607 7.24832 8.61159 7.92995 7.92997C8.61157 7.24834 9.53605 6.86541 10.5 6.86541C11.464 6.86541 12.3884 7.24834 13.0701 7.92997C13.7517 8.61159 14.1346 9.53607 14.1346 10.5C14.1346 11.464 13.7517 12.3885 13.0701 13.0701C12.3884 13.7517 11.464 14.1346 10.5 14.1346ZM17.5269 4.92695C17.5269 5.09666 17.4935 5.26471 17.4286 5.4215C17.3636 5.57829 17.2684 5.72075 17.1484 5.84075C17.0284 5.96075 16.886 6.05594 16.7292 6.12089C16.5724 6.18583 16.4043 6.21926 16.2346 6.21926C16.0649 6.21926 15.8969 6.18583 15.7401 6.12089C15.5833 6.05594 15.4408 5.96075 15.3208 5.84075C15.2008 5.72075 15.1056 5.57829 15.0407 5.4215C14.9757 5.26471 14.9423 5.09666 14.9423 4.92695C14.9423 4.58421 15.0785 4.25551 15.3208 4.01315C15.5632 3.7708 15.8919 3.63464 16.2346 3.63464C16.5774 3.63464 16.9061 3.7708 17.1484 4.01315C17.3908 4.25551 17.5269 4.58421 17.5269 4.92695Z" fill="#D3BE73"/>
</svg>
