<svg width="25" height="14" viewBox="0 0 25 14" fill="none" xmlns="http://www.w3.org/2000/svg">
<path fill-rule="evenodd" clip-rule="evenodd" d="M11.9798 13.912H13.4598C13.4598 13.912 13.9038 13.838 14.1258 13.616C14.3478 13.394 14.3478 12.95 14.3478 12.95C14.3478 12.95 14.3478 11.026 15.2358 10.73C16.1238 10.434 17.3078 12.654 18.4918 13.468C19.3798 14.134 20.0458 13.986 20.0458 13.986L23.3018 13.912C23.3018 13.912 25.0038 13.838 24.1898 12.432C24.1158 12.358 23.7458 11.47 21.7478 9.61999C19.6758 7.69599 19.9718 8.06599 22.4138 4.736C23.8938 2.738 24.4858 1.554 24.3378 0.961999C24.1898 0.443999 23.0798 0.591999 23.0798 0.591999H19.3798C19.3798 0.591999 19.0838 0.517999 18.9358 0.665999C18.7138 0.813999 18.6398 1.036 18.6398 1.036C18.6398 1.036 18.0478 2.59 17.3078 3.922C15.6798 6.65999 15.0138 6.80799 14.7918 6.65999C14.1998 6.28999 14.3478 5.03199 14.3478 4.218C14.3478 1.554 14.7918 0.443999 13.5338 0.147999C13.1638 0.0739991 12.8678 0 11.8318 0C10.4998 0 9.38977 -2.83548e-07 8.79777 0.295999C8.35377 0.517999 8.05777 0.961999 8.27977 0.961999C8.50177 0.961999 9.09377 1.11 9.38977 1.48C9.68577 2.146 9.68577 3.256 9.68577 3.256C9.68577 3.256 9.90777 6.43799 9.16777 6.80799C8.64977 7.10399 7.98377 6.51199 6.50377 3.996C5.76377 2.738 5.17177 1.258 5.17177 1.258C5.17177 1.258 5.09777 0.961999 4.87577 0.814C4.65377 0.666 4.28377 0.591999 4.28377 0.591999H0.805777C0.805777 0.591999 0.287778 0.592 0.0657777 0.814C-0.0822222 1.036 0.0657777 1.406 0.0657777 1.406C0.0657777 1.406 2.80378 7.76999 5.91177 11.026C8.79777 14.134 11.9798 13.912 11.9798 13.912Z" fill="#D3BE73"/>
</svg>
