<svg width="21" height="16" viewBox="0 0 21 16" fill="none" xmlns="http://www.w3.org/2000/svg">
<path d="M20.79 4.01999C20.79 4.01999 20.58 2.54999 19.95 1.91999C19.18 1.07999 18.27 1.07999 17.85 1.00999C14.91 0.799988 10.5 0.799988 10.5 0.799988C10.5 0.799988 6.09 0.799988 3.15 1.00999C2.73 1.07999 1.82 1.07999 1.05 1.91999C0.42 2.54999 0.21 4.01999 0.21 4.01999C0.21 4.01999 0 5.69999 0 7.37999V8.91999C0 10.6 0.21 12.35 0.21 12.35C0.21 12.35 0.42 13.82 1.05 14.45C1.82 15.29 2.87 15.29 3.36 15.36C5.04 15.43 10.5 15.5 10.5 15.5C10.5 15.5 14.91 15.5 17.85 15.29C18.27 15.22 19.18 15.22 19.95 14.38C20.58 13.75 20.79 12.28 20.79 12.28C20.79 12.28 21 10.6 21 8.91999V7.37999C21 5.69999 20.79 4.01999 20.79 4.01999ZM8.33 10.88V4.99999L14 7.93999L8.33 10.88Z" fill="#D3BE73"/>
</svg>
